# xmcd
#
# Track frame offsets:
#	150
#	14378
#	30928
#	45651
#	75677
#	96297
#	111631
#	126674
#	141874
#	153692
#	174916
#	187009
#	200830
#	219386
#	232865
#	246870
#	257460
#	267707
#	290144
#	303727
#	325628
#	339233
#
# Disc length: 4704 seconds
#
# Revision: 0
# Processed by: cddbd v1.5.2PL0 Copyright (c) Steve Scherf et al.
# Submitted via: EZCDAudioConverter 8.5.0.1
#
DISCID=4b125e16
DTITLE=Across The Great Divide 2/3
DYEAR=1900
DGENRE=
TTITLE0=Brinsley Schwarz - Country Girl
TTITLE1=McGuinness Flint - When I'm Dead And Gone
TTITLE2=Traffic - Forty Thousand Headmen
TTITLE3=Bronco - New Day Avenue
TTITLE4=Tranquility - Try Again
TTITLE5=Cochise - Velvet Mountain
TTITLE6=Procol Harum - A Souvenir Of London
TTITLE7=The Deep Set - Cinnamon Girl
TTITLE8=Stephen Jameson - Day The World Ran Away
TTITLE9=Byzantium - I'll Just Take My Time
TTITLE10=High Broom - It's A Way To Pass The Time
TTITLE11=Holy Mackerel - Going To The Country
TTITLE12=Montage - Liquor Man
TTITLE13=Shelagh McDonald - Jesus Is Just Alright
TTITLE14=Granny's Intentions - We Both Need To Know
TTITLE15=Heron - Bye And Bye
TTITLE16=Timebox - Country Dan And City Lil
TTITLE17=The Searchers - And A Button
TTITLE18=The Orange Bicycle - Take Me To The Pilot
TTITLE19=Natural Gas - The Jailer
TTITLE20=Curtiss Maldoon - So Nice
TTITLE21=Jawbone - Million Times Before
EXTD=
EXTT0=
EXTT1=
EXTT2=
EXTT3=
EXTT4=
EXTT5=
EXTT6=
EXTT7=
EXTT8=
EXTT9=
EXTT10=
EXTT11=
EXTT12=
EXTT13=
EXTT14=
EXTT15=
EXTT16=
EXTT17=
EXTT18=
EXTT19=
EXTT20=
EXTT21=
PLAYORDER=
